<svg width="24" height="24" viewBox="0 0 24 24" fill="none" xmlns="http://www.w3.org/2000/svg">
<path fill-rule="evenodd" clip-rule="evenodd" d="M12 21C15.866 21 19 18.1219 19 14.5715C19 10.0507 14.3563 5.2178 12.6333 3.58023C12.2749 3.23953 11.7251 3.23953 11.3667 3.58023C9.64371 5.2178 5 10.0507 5 14.5715C5 18.1219 8.13401 21 12 21ZM9.03367 14.4482C8.99241 14.1752 8.73762 13.9873 8.46458 14.0286C8.19154 14.0698 8.00364 14.3246 8.0449 14.5977C8.17321 15.4468 8.5714 16.2321 9.18058 16.8374C9.78976 17.4428 10.5776 17.8359 11.4275 17.9589C11.7008 17.9984 11.9544 17.8089 11.9939 17.5356C12.0335 17.2623 11.8439 17.0087 11.5706 16.9691C10.9332 16.877 10.3423 16.5821 9.88543 16.1281C9.42855 15.6741 9.1299 15.0851 9.03367 14.4482Z" fill="currentColor"/>
</svg>
