<svg width="24" height="24" viewBox="0 0 24 24" fill="none" xmlns="http://www.w3.org/2000/svg">
<circle cx="12" cy="12" r="1" fill="currentColor"/>
<path fill-rule="evenodd" clip-rule="evenodd" d="M15.1404 17.4393C15.3384 16.8802 15.5079 16.27 15.6428 15.6184C15.2765 15.8641 14.8951 16.1019 14.5 16.33C14.1049 16.5581 13.7082 16.7695 13.3123 16.9639C13.944 17.1729 14.5572 17.3312 15.1404 17.4393ZM15.7797 18.5466C14.8629 20.662 13.5096 22 12 22C10.4904 22 9.13702 20.662 8.22024 18.5465C5.92992 18.8102 4.09455 18.3072 3.33977 16.9999C2.58498 15.6925 3.06703 13.8515 4.44058 11.9999C3.06703 10.1483 2.58498 8.30728 3.33977 6.99995C4.09456 5.69261 5.92996 5.18958 8.22031 5.45331C9.13709 3.33797 10.4904 2 12 2C13.5096 2 14.8629 3.33793 15.7796 5.45324C18.07 5.18949 19.9055 5.69251 20.6603 6.99987C21.4151 8.30722 20.933 10.1483 19.5594 11.9999C20.933 13.8516 21.4151 15.6926 20.6603 17C19.9055 18.3073 18.0701 18.8103 15.7797 18.5466ZM14.7569 18.3837C13.8764 18.2063 12.9472 17.9273 11.9999 17.5483C11.0527 17.9272 10.1236 18.2063 9.2431 18.3836C9.28103 18.4652 9.31963 18.5453 9.35889 18.6239C10.2106 20.3272 11.2021 21 12 21C12.7979 21 13.7894 20.3272 14.6411 18.6239C14.6803 18.5454 14.7189 18.4653 14.7569 18.3837ZM10.6875 16.9639C10.0558 17.1729 9.4427 17.3312 8.85952 17.4393C8.66154 16.8802 8.49208 16.27 8.35725 15.6185C8.72356 15.8641 9.10488 16.1019 9.50002 16.3301C9.89511 16.5582 10.2917 16.7695 10.6875 16.9639ZM7.1949 14.7741C7.34038 15.7839 7.56328 16.728 7.84991 17.5792C7.76031 17.5872 7.6717 17.5938 7.58415 17.5991C5.68318 17.7132 4.60473 17.1909 4.20579 16.4999C3.80685 15.8089 3.89374 14.6138 4.94304 13.0245C4.99137 12.9513 5.0414 12.8779 5.09311 12.8043C5.68693 13.4781 6.39314 14.1432 7.1949 14.7741ZM8.13196 14.2331C8.70568 14.6635 9.3302 15.0773 10 15.4641C10.6698 15.8507 11.3404 16.1847 11.9999 16.4663C12.6595 16.1847 13.3302 15.8507 14 15.464C14.6698 15.0773 15.2943 14.6635 15.868 14.2331C15.9539 13.5211 16 12.7734 16 12C16 11.2265 15.9539 10.4788 15.868 9.76672C15.2943 9.33635 14.6698 8.92256 14 8.53585C13.3302 8.14912 12.6595 7.81516 11.9999 7.53349C11.3404 7.81514 10.6698 8.14907 10 8.53576C9.33021 8.92248 8.7057 9.33628 8.13198 9.76666C8.04611 10.4787 8 11.2265 8 12C8 12.7734 8.0461 13.5211 8.13196 14.2331ZM13.3123 7.03592C13.7082 7.23034 14.1049 7.44168 14.5 7.66982C14.8951 7.89794 15.2764 8.13572 15.6427 8.38136C15.5079 7.72978 15.3384 7.1196 15.1404 6.56049C14.5572 6.66858 13.944 6.8269 13.3123 7.03592ZM16.9551 10.6545C16.9847 11.0946 17 11.5437 17 12C17 12.4562 16.9847 12.9053 16.9551 13.3453C17.452 12.9027 17.8957 12.4509 18.2809 11.9999C17.8956 11.5489 17.452 11.0971 16.9551 10.6545ZM18.9069 11.1955C18.313 10.5217 17.6068 9.85659 16.8051 9.22571C16.6596 8.2159 16.4367 7.27172 16.15 6.42052C16.2396 6.41255 16.3283 6.40593 16.4159 6.40067C18.3169 6.28657 19.3953 6.80888 19.7943 7.49987C20.1932 8.19085 20.1063 9.38597 19.057 10.9752C19.0086 11.0484 18.9586 11.1219 18.9069 11.1955ZM18.9069 12.8043C18.313 13.4781 17.6068 14.1432 16.8051 14.7741C16.6596 15.7839 16.4367 16.7281 16.1501 17.5793C16.2397 17.5873 16.3283 17.5939 16.4159 17.5991C18.3169 17.7132 19.3953 17.1909 19.7943 16.5C20.1932 15.809 20.1063 14.6139 19.057 13.0246C19.0086 12.9514 18.9586 12.8779 18.9069 12.8043ZM11.9999 6.45147C11.0527 6.0726 10.1236 5.79358 9.24318 5.61624C9.28108 5.53465 9.31966 5.4546 9.35889 5.37615C10.2106 3.67281 11.2021 3 12 3C12.7979 3 13.7894 3.67281 14.6411 5.37615C14.6803 5.45458 14.7189 5.5346 14.7568 5.61617C13.8763 5.79352 12.9472 6.07257 11.9999 6.45147ZM8.85958 6.56056C9.44274 6.66864 10.0559 6.82694 10.6875 7.03594C10.2917 7.23032 9.89511 7.44163 9.50002 7.66974C9.1049 7.89786 8.72359 8.13565 8.3573 8.3813C8.49213 7.72976 8.6616 7.11964 8.85958 6.56056ZM7.84997 6.4206C7.76035 6.41263 7.67172 6.40602 7.58415 6.40076C5.68318 6.28666 4.60473 6.80896 4.20579 7.49995C3.80685 8.19094 3.89374 9.38605 4.94304 10.9753C4.99137 11.0485 5.0414 11.1219 5.09311 11.1955C5.68694 10.5217 6.39316 9.85655 7.19493 9.22565C7.34042 8.2159 7.56333 7.27176 7.84997 6.4206ZM5.71912 11.9999C6.10433 11.5489 6.54801 11.097 7.04487 10.6545C7.01528 11.0946 7 11.5437 7 12C7 12.4562 7.01527 12.9053 7.04486 13.3453C6.548 12.9028 6.10432 12.4509 5.71912 11.9999Z" fill="#2A4157" fill-opacity="0.24"/>
</svg>
