<svg width="24" height="24" viewBox="0 0 24 24" fill="none" xmlns="http://www.w3.org/2000/svg">
<circle cx="12" cy="12" r="10" fill="#2A4157" fill-opacity="0.24"/>
<circle cx="12" cy="12" r="1" fill="#222222"/>
<path fill-rule="evenodd" clip-rule="evenodd" d="M14.3798 16.122C14.4919 15.7866 14.5912 15.4287 14.6758 15.0515C14.4567 15.1928 14.2313 15.3305 13.9999 15.4641C13.7686 15.5976 13.5366 15.724 13.3047 15.8431C13.6737 15.9585 14.0334 16.0513 14.3798 16.122ZM15.0238 17.2373C14.2903 18.9296 13.2077 20 12 20C10.7923 20 9.70966 18.9296 8.97623 17.2373C7.1439 17.4483 5.67554 17.0459 5.0717 16C4.46787 14.9541 4.85351 13.4813 5.95236 12C4.85348 10.5187 4.46782 9.04587 5.07166 7.99999C5.67551 6.95409 7.14389 6.55168 8.97624 6.7627C9.70967 5.07039 10.7923 4 12 4C13.2077 4 14.2903 5.07038 15.0238 6.76267C16.856 6.55171 18.3243 6.95414 18.9281 7.99999C19.5319 9.04587 19.1463 10.5187 18.0474 12C19.1463 13.4813 19.5319 14.9541 18.9281 16C18.3242 17.0458 16.856 17.4483 15.0238 17.2373ZM14.0045 17.0645C13.3603 16.9222 12.686 16.7132 11.9999 16.4387C11.3138 16.7132 10.6397 16.9221 9.99548 17.0645C10.0187 17.1136 10.0422 17.162 10.066 17.2096C10.7367 18.5511 11.4783 19 12 19C12.5217 19 13.2633 18.5511 13.934 17.2096C13.9578 17.162 13.9813 17.1137 14.0045 17.0645ZM10.695 15.8431C10.3261 15.9584 9.96656 16.0513 9.62018 16.1219C9.50817 15.7866 9.40881 15.4288 9.32422 15.0517C9.54327 15.1929 9.76861 15.3306 9.99986 15.4641C10.2312 15.5976 10.4631 15.724 10.695 15.8431ZM8.15595 14.2195C8.26133 14.9508 8.41747 15.6391 8.61625 16.2682C8.56207 16.2727 8.50839 16.2765 8.45522 16.2797C6.95817 16.3696 6.1986 15.9518 5.93773 15.5C5.67685 15.0481 5.69488 14.1815 6.52122 12.9299C6.55055 12.8855 6.58068 12.841 6.61163 12.7963C7.05707 13.2831 7.57518 13.7625 8.15595 14.2195ZM9.09417 13.6778C9.52738 13.9986 9.99713 14.3078 10.4999 14.5981C11.0027 14.8884 11.5054 15.1406 11.9999 15.3554C12.4944 15.1406 12.9971 14.8884 13.4999 14.5981C14.0027 14.3078 14.4726 13.9985 14.9059 13.6776C14.9671 13.142 15 12.5805 15 12C15 11.4195 14.9671 10.858 14.9059 10.3224C14.4726 10.0015 14.0027 9.69224 13.4999 9.40191C12.9971 9.11163 12.4944 8.85938 11.9999 8.64462C11.5054 8.85938 11.0027 9.11163 10.4999 9.40191C9.99715 9.69218 9.52739 10.0014 9.09417 10.3222C9.0329 10.8579 9.00001 11.4194 9.00001 12C9.00001 12.5806 9.0329 13.1421 9.09417 13.6778ZM13.3047 8.15688C13.5366 8.27599 13.7686 8.40234 13.9999 8.53589C14.2312 8.66947 14.4567 8.8072 14.6758 8.94849C14.5912 8.57127 14.4918 8.21338 14.3798 7.87801C14.0334 7.94867 13.6737 8.04154 13.3047 8.15688ZM15.9807 11.2086C15.9935 11.4689 16 11.7329 16 12C16 12.2671 15.9935 12.5311 15.9807 12.7914C16.265 12.5296 16.5252 12.2647 16.7595 12C16.5252 11.7354 16.265 11.4704 15.9807 11.2086ZM17.3881 11.2037C16.9428 10.717 16.4248 10.2377 15.8441 9.78074C15.7387 9.0493 15.5826 8.36089 15.3837 7.73177C15.4379 7.7273 15.4915 7.72346 15.5446 7.72028C17.0416 7.63042 17.8012 8.04815 18.0621 8.49999C18.323 8.95183 18.3049 9.81851 17.4786 11.0701C17.4493 11.1145 17.4191 11.159 17.3881 11.2037ZM17.3881 12.7963C16.9428 13.283 16.4247 13.7624 15.8441 14.2193C15.7387 14.9507 15.5826 15.6391 15.3838 16.2682C15.4379 16.2727 15.4915 16.2765 15.5445 16.2797C17.0416 16.3696 17.8012 15.9518 18.062 15.5C18.3229 15.0481 18.3049 14.1815 17.4785 12.9299C17.4492 12.8855 17.4191 12.841 17.3881 12.7963ZM11.9999 7.56125C11.3138 7.28683 10.6397 7.07788 9.99549 6.9355C10.0187 6.88636 10.0422 6.83797 10.066 6.79036C10.7367 5.44895 11.4783 5 12 5C12.5217 5 13.2633 5.44895 13.934 6.79036C13.9578 6.83796 13.9813 6.88633 14.0045 6.93546C13.3603 7.07784 12.686 7.2868 11.9999 7.56125ZM9.62018 7.87806C9.96657 7.94871 10.3261 8.04156 10.695 8.15688C10.4631 8.27599 10.2312 8.40234 9.9999 8.53589C9.76863 8.66941 9.54328 8.80708 9.32422 8.94831C9.40881 8.57117 9.50817 8.21336 9.62018 7.87806ZM8.61626 7.73179C8.56206 7.7273 8.50836 7.72347 8.45518 7.72028C6.95813 7.63042 6.19856 8.04815 5.93769 8.49999C5.67682 8.95183 5.69484 9.81851 6.52118 11.0701C6.55052 11.1145 6.58067 11.159 6.61163 11.2037C7.05707 10.717 7.57518 10.2375 8.15595 9.78052C8.26133 9.04917 8.41747 8.36084 8.61626 7.73179ZM7.24026 12C7.47469 11.7353 7.73494 11.4703 8.01934 11.2084C8.00655 11.4688 8.00001 11.7329 8.00001 12C8.00001 12.2671 8.00655 12.5312 8.01934 12.7916C7.73494 12.5298 7.47469 12.2647 7.24026 12Z" fill="#222222"/>
</svg>
