<svg width="24" height="24" viewBox="0 0 24 24" fill="none" xmlns="http://www.w3.org/2000/svg">
<path fill-rule="evenodd" clip-rule="evenodd" d="M20.9445 15.002C21.0057 15.5509 20.5523 16 20 16H16.9949C16.4427 16 16.0073 15.5454 15.8704 15.0104C15.7353 14.4817 15.4927 13.9845 15.1561 13.5507L18.7075 9.99925C19.9577 11.3965 20.7376 13.1467 20.9445 15.002ZM18.0004 9.29216C16.4788 7.93086 14.5386 7.12723 12.5 7.01389V12.0365C13.2101 12.126 13.8835 12.4049 14.4489 12.8437L18.0004 9.29216ZM9.55106 12.8437C10.1165 12.4049 10.7899 12.126 11.5 12.0365V7.01389C9.46142 7.12723 7.52122 7.93087 5.99955 9.29217L9.55106 12.8437ZM5.29243 9.99927C4.04231 11.3965 3.26243 13.1467 3.05547 15.002C2.99424 15.5509 3.44771 16 4 16H7.00505C7.55734 16 7.99273 15.5454 8.12956 15.0104C8.26474 14.4817 8.50729 13.9845 8.84392 13.5507L5.29243 9.99927Z" fill="#222222"/>
</svg>
