<svg width="24" height="24" viewBox="0 0 24 24" fill="none" xmlns="http://www.w3.org/2000/svg">
<path fill-rule="evenodd" clip-rule="evenodd" d="M18.5207 10.1859C18.6222 10.0844 18.7884 10.0889 18.8809 10.1986C20.1908 11.7521 20.9399 13.7085 20.9965 15.7498C21.0004 15.8878 20.8881 15.9998 20.75 15.9998H16.2449C16.1069 15.9998 15.9958 15.8877 15.9871 15.7499C15.9416 15.0221 15.6977 14.3235 15.2864 13.7283C15.2147 13.6247 15.2229 13.4837 15.312 13.3946L18.5207 10.1859ZM17.8009 9.11862C17.9106 9.21114 17.915 9.37734 17.8135 9.47883L14.6048 12.6876C14.5157 12.7767 14.3748 12.7848 14.2711 12.7132C13.8049 12.391 13.2753 12.1717 12.7179 12.0699C12.5939 12.0472 12.5 11.9418 12.5 11.8158V7.27796C12.5 7.13444 12.6207 7.02005 12.7637 7.03222C14.6178 7.19005 16.3782 7.91922 17.8009 9.11862ZM11.5 7.27796C11.5 7.13444 11.3793 7.02005 11.2363 7.03222C9.38224 7.19005 7.62179 7.91923 6.19913 9.11864C6.08939 9.21115 6.08496 9.37736 6.18645 9.47885L9.3952 12.6876C9.48427 12.7767 9.62525 12.7848 9.72888 12.7132C10.1951 12.3911 10.7247 12.1717 11.2822 12.0699C11.4061 12.0472 11.5 11.9418 11.5 11.8158V7.27796ZM8.71363 13.7283C8.78526 13.6247 8.77712 13.4837 8.68804 13.3946L5.47931 10.1859C5.37783 10.0844 5.21163 10.0889 5.11911 10.1986C3.80925 11.7521 3.06014 13.7085 3.00347 15.7498C2.99964 15.8878 3.11193 15.9998 3.25 15.9998L7.75506 15.9998C7.89313 15.9998 8.00425 15.8877 8.01288 15.7499C8.05846 15.0221 8.30228 14.3235 8.71363 13.7283Z" fill="#7E869E" fill-opacity="0.25"/>
<path fill-rule="evenodd" clip-rule="evenodd" d="M12.5 11.8056C12.5 11.9316 12.594 12.0371 12.7179 12.0597C13.278 12.1617 13.8101 12.3821 14.2782 12.7059C14.3819 12.7776 14.5229 12.7695 14.612 12.6804L18.5228 8.76959C18.6239 8.66849 18.6199 8.50308 18.5114 8.40998C16.8974 7.02514 14.8828 6.19069 12.7623 6.02865C12.6198 6.01776 12.5 6.13191 12.5 6.27489V11.8056Z" fill="#222222"/>
</svg>
