<svg width="26" height="24" viewBox="0 0 26 24" fill="none" xmlns="http://www.w3.org/2000/svg">
<path d="M24.548 7.26652C25.2475 6.41163 25.1215 5.15159 24.2666 4.45213C23.4117 3.75268 22.1516 3.87868 21.4522 4.73357L13.7048 14.2026L10.2495 11.4383C9.38696 10.7483 8.12837 10.8881 7.43835 11.7507C6.74833 12.6132 6.88818 13.8718 7.7507 14.5618L11.9784 17.9439C13.2621 18.9709 15.1333 18.7734 16.1743 17.501L24.548 7.26652Z" stroke="#222222" stroke-width="2" stroke-linecap="round"/>
<mask id="path-2-outside-1_0_3670" maskUnits="userSpaceOnUse" x="-1" y="2.99997" width="21" height="17" fill="black">
<rect fill="white" x="-1" y="2.99997" width="21" height="17"/>
<path fill-rule="evenodd" clip-rule="evenodd" d="M12.8226 11.4628L16.774 6.63324C17.1237 6.20579 17.0607 5.57577 16.6333 5.22604C16.2059 4.87631 15.5758 4.93932 15.2261 5.36676L11.2861 10.1824L12.8226 11.4628ZM8.38972 16.8807L6.85321 15.6003L6.83315 15.6248L3.60006 13.2C3.15823 12.8686 2.53143 12.9582 2.20006 13.4C1.86869 13.8418 1.95823 14.4686 2.40006 14.8L5.63315 17.2248C6.49053 17.8679 7.7024 17.7208 8.38106 16.8913L8.38972 16.8807Z"/>
</mask>
<path d="M16.774 6.63324L15.2261 5.36676V5.36676L16.774 6.63324ZM12.8226 11.4628L11.5422 12.9992L13.0925 14.2912L14.3705 12.7293L12.8226 11.4628ZM16.6333 5.22604L15.3668 6.77396L16.6333 5.22604ZM15.2261 5.36676L16.774 6.63324L15.2261 5.36676ZM11.2861 10.1824L9.73814 8.9159L8.48302 10.4499L10.0057 11.7188L11.2861 10.1824ZM8.38972 16.8807L9.93764 18.1472L11.1927 16.6131L9.67008 15.3443L8.38972 16.8807ZM6.85321 15.6003L8.13358 14.0639L6.58322 12.7719L5.30528 14.3338L6.85321 15.6003ZM6.83315 15.6248L5.63315 17.2248L7.16698 18.3752L8.38107 16.8913L6.83315 15.6248ZM3.60006 13.2L2.40006 14.8L2.40006 14.8L3.60006 13.2ZM2.20006 13.4L0.600058 12.2L2.20006 13.4ZM2.40006 14.8L3.60006 13.2H3.60006L2.40006 14.8ZM5.63315 17.2248L4.43315 18.8248L4.43315 18.8248L5.63315 17.2248ZM8.38106 16.8913L9.92898 18.1578L9.92899 18.1578L8.38106 16.8913ZM15.2261 5.36676L11.2746 10.1963L14.3705 12.7293L18.3219 7.89971L15.2261 5.36676ZM15.3668 6.77396C14.9394 6.42423 14.8764 5.79421 15.2261 5.36676L18.3219 7.89971C19.3711 6.61738 19.1821 4.72731 17.8998 3.67813L15.3668 6.77396ZM16.774 6.63324C16.4243 7.06068 15.7943 7.12368 15.3668 6.77396L17.8998 3.67813C16.6174 2.62894 14.7274 2.81795 13.6782 4.10029L16.774 6.63324ZM12.834 11.4488L16.774 6.63324L13.6782 4.10029L9.73814 8.9159L12.834 11.4488ZM10.0057 11.7188L11.5422 12.9992L14.1029 9.92635L12.5664 8.64593L10.0057 11.7188ZM9.67008 15.3443L8.13358 14.0639L5.57284 17.1367L7.10935 18.4172L9.67008 15.3443ZM8.38107 16.8913L8.40114 16.8668L5.30528 14.3338L5.28522 14.3584L8.38107 16.8913ZM2.40006 14.8L5.63315 17.2248L8.03315 14.0248L4.80006 11.6L2.40006 14.8ZM3.80006 14.6C3.46869 15.0418 2.84189 15.1314 2.40006 14.8L4.80006 11.6C3.47458 10.6059 1.59417 10.8745 0.600058 12.2L3.80006 14.6ZM3.60006 13.2C4.04189 13.5314 4.13143 14.1582 3.80006 14.6L0.600058 12.2C-0.394053 13.5255 -0.125425 15.4059 1.20006 16.4L3.60006 13.2ZM6.83315 15.6248L3.60006 13.2L1.20006 16.4L4.43315 18.8248L6.83315 15.6248ZM6.83315 15.6248H6.83315L4.43315 18.8248C6.14791 20.1109 8.57166 19.8167 9.92898 18.1578L6.83315 15.6248ZM6.84179 15.6143L6.83314 15.6248L9.92899 18.1578L9.93764 18.1472L6.84179 15.6143Z" fill="#222222" mask="url(#path-2-outside-1_0_3670)"/>
</svg>
