<svg width="24" height="24" viewBox="0 0 24 24" fill="none" xmlns="http://www.w3.org/2000/svg">
<path fill-rule="evenodd" clip-rule="evenodd" d="M2.45554 11.1164C3.53109 9.23425 6.55576 5 12 5C17.4442 5 20.4689 9.23425 21.5445 11.1164C21.7651 11.5025 21.8754 11.6956 21.8633 11.9836C21.8512 12.2716 21.7214 12.4598 21.462 12.8362C20.1818 14.6935 16.7061 19 12 19C7.29389 19 3.8182 14.6935 2.538 12.8362C2.27857 12.4598 2.14886 12.2716 2.13671 11.9836C2.12456 11.6956 2.23489 11.5025 2.45554 11.1164ZM12 15C13.6569 15 15 13.6569 15 12C15 10.3431 13.6569 9 12 9C10.3431 9 9 10.3431 9 12C9 13.6569 10.3431 15 12 15Z" fill="#7E869E" fill-opacity="0.25"/>
<path d="M12 5C6.55576 5 3.53109 9.23425 2.45554 11.1164C2.23488 11.5025 2.12456 11.6956 2.1367 11.9836C2.14885 12.2716 2.27857 12.4598 2.53799 12.8362C3.8182 14.6935 7.29389 19 12 19C16.7061 19 20.1818 14.6935 21.462 12.8362C21.7214 12.4598 21.8511 12.2716 21.8633 11.9836C21.8754 11.6956 21.7651 11.5025 21.5445 11.1164C20.4689 9.23425 17.4442 5 12 5Z" stroke="currentColor" stroke-width="1.2"/>
<circle cx="12" cy="12" r="3" stroke="currentColor" stroke-width="1.2"/>
</svg>
