<svg width="24" height="24" viewBox="0 0 24 24" fill="none" xmlns="http://www.w3.org/2000/svg">
<path d="M12 16V19.5" stroke="currentColor" stroke-width="1.6" stroke-linecap="round" stroke-linejoin="round"/>
<path d="M7.2211 13.5141L6.84325 13.1866L6.84325 13.1866L7.2211 13.5141ZM10.7 9.5V9C10.555 9 10.4171 9.06295 10.3221 9.17253L10.7 9.5ZM16.7788 13.5141L16.401 13.8415L16.401 13.8415L16.7788 13.5141ZM13.3 9.5L13.6778 9.17253C13.5828 9.06295 13.445 9 13.3 9V9.5ZM7.59894 13.8415L11.0778 9.82747L10.3221 9.17253L6.84325 13.1866L7.59894 13.8415ZM8.12793 15C7.52808 15 7.20608 14.2948 7.59894 13.8415L6.84325 13.1866C5.88917 14.2875 6.67115 16 8.12793 16V15ZM15.872 15H8.12793V16H15.872V15ZM16.401 13.8415C16.7939 14.2948 16.4719 15 15.872 15V16C17.3288 16 18.1108 14.2875 17.1567 13.1866L16.401 13.8415ZM12.9221 9.82747L16.401 13.8415L17.1567 13.1866L13.6778 9.17253L12.9221 9.82747ZM13.3 9H10.7V10H13.3V9Z" fill="currentColor"/>
<path d="M8.3433 7.48913L11.2628 4.30417C11.6592 3.8718 12.3408 3.8718 12.7372 4.30417L15.6567 7.48913C16.3622 8.25881 15.8162 9.5 14.7721 9.5H9.22788C8.18376 9.5 7.63776 8.25881 8.3433 7.48913Z" stroke="currentColor" stroke-linecap="round" stroke-linejoin="round"/>
</svg>
