<svg width="24" height="24" viewBox="0 0 24 24" fill="none" xmlns="http://www.w3.org/2000/svg">
<path fill-rule="evenodd" clip-rule="evenodd" d="M17.9062 17.2313C18.2989 17.6801 18.999 17.6894 19.3437 17.2029C19.9558 16.3389 20.4142 15.3686 20.692 14.3343C21.0117 13.1439 21.0818 11.9071 20.9056 10.7001C20.8195 10.1101 20.1915 9.80043 19.6379 10.0219L14.9933 11.8797C14.3531 12.1358 14.1581 12.9478 14.6121 13.4667L17.9062 17.2313ZM19.3454 6.79948C19.6899 7.28613 19.4487 7.94348 18.8951 8.16493L14.3714 9.97441C13.7145 10.2372 13 9.75339 13 9.04593V4.17375C13 3.57747 13.5208 3.10938 14.1006 3.24856C15.1931 3.51081 16.2331 3.9768 17.1636 4.6286C18.015 5.22501 18.7515 5.96073 19.3454 6.79948Z" fill="#33363F"/>
<path fill-rule="evenodd" clip-rule="evenodd" d="M11 3.1557C11 2.56388 10.4871 2.09744 9.90834 2.22123C8.99701 2.41616 8.11402 2.73826 7.28604 3.18082C5.83571 3.95604 4.59895 5.07697 3.68531 6.44433C2.77167 7.81169 2.20935 9.38327 2.04816 11.0199C1.88697 12.6565 2.13188 14.3075 2.76121 15.8269C3.39053 17.3462 4.38485 18.6869 5.65607 19.7301C6.92729 20.7734 8.43619 21.4871 10.0491 21.8079C11.662 22.1287 13.3292 22.0468 14.9028 21.5694C15.5873 21.3618 16.245 21.0821 16.8653 20.7367C17.3823 20.4487 17.4612 19.76 17.0715 19.3146L11.2845 12.7009C11.1011 12.4913 11 12.2222 11 11.9436V3.1557Z" fill="#33363F"/>
</svg>
